<?xml version="1.0" standalone="no"?>
<!DOCTYPE svg PUBLIC "-//W3C//DTD SVG 20010904//EN"
 "http://www.w3.org/TR/2001/REC-SVG-20010904/DTD/svg10.dtd">
<svg version="1.0" xmlns="http://www.w3.org/2000/svg"
 width="2000.000000pt" height="328.000000pt" viewBox="0 0 2000.000000 328.000000"
 preserveAspectRatio="xMidYMid meet">

<g transform="translate(0.000000,328.000000) scale(0.100000,-0.100000)"
fill="#000000" stroke="none">
<path d="M3108 3266 c-207 -59 -300 -206 -302 -476 -1 -97 2 -122 20 -160 58
-127 188 -177 410 -159 194 16 321 102 375 253 44 127 50 311 12 397 -25 56
-75 107 -133 133 -38 17 -68 21 -190 23 -97 1 -160 -2 -192 -11z"/>
<path d="M14611 3264 c-162 -43 -252 -148 -287 -334 -24 -127 -16 -251 22
-320 55 -102 145 -142 318 -141 334 0 487 152 490 486 0 95 -3 117 -23 163
-30 66 -93 123 -162 145 -66 22 -279 22 -358 1z"/>
<path d="M16960 3246 c0 -13 -211 -1211 -214 -1213 -2 -2 -37 12 -77 32 -106
50 -198 67 -359 67 -216 -1 -392 -43 -532 -128 -139 -85 -288 -263 -356 -425
-46 -112 -66 -193 -128 -534 -49 -271 -56 -327 -57 -445 -1 -99 3 -152 16
-200 51 -192 162 -303 372 -370 98 -32 377 -41 490 -15 144 32 287 124 374
242 47 63 61 74 61 48 0 -34 44 -126 80 -167 47 -54 134 -102 221 -123 87 -20
305 -20 384 0 72 19 185 71 240 112 l40 29 10 237 c9 210 8 237 -5 231 -56
-21 -140 -36 -185 -30 -67 7 -95 38 -95 106 0 27 99 608 220 1292 121 683 220
1246 220 1250 0 4 -162 8 -360 8 -198 0 -360 -2 -360 -4z m-396 -1742 c22 -11
49 -32 59 -46 19 -26 19 -26 -43 -380 -71 -401 -66 -387 -178 -444 -51 -26
-67 -29 -157 -29 -88 0 -107 3 -149 25 -69 36 -109 95 -114 168 -4 54 25 248
64 432 35 161 117 256 251 290 67 16 223 7 267 -16z"/>
<path d="M10025 3109 c-505 -52 -852 -279 -1039 -681 -89 -189 -103 -252 -220
-923 -84 -479 -96 -567 -96 -705 0 -440 194 -683 620 -776 72 -16 129 -19 370
-19 256 0 296 2 395 22 321 65 556 201 717 413 64 83 150 260 182 372 19 64
126 614 126 644 0 2 -251 4 -558 4 l-558 0 -38 -212 c-21 -117 -40 -223 -43
-235 l-5 -23 172 0 172 0 -7 -27 c-28 -114 -137 -243 -240 -284 -53 -20 -77
-23 -196 -24 -131 0 -137 1 -194 30 -113 58 -153 149 -141 319 6 89 154 949
182 1061 65 256 233 395 478 395 117 0 176 -19 232 -75 59 -59 85 -135 92
-261 6 -125 -13 -220 -63 -317 -19 -38 -35 -70 -35 -73 0 -2 166 -4 370 -4
l370 0 30 61 c38 75 82 206 106 319 25 115 25 337 1 435 -73 292 -310 486
-672 550 -109 19 -386 27 -510 14z"/>
<path d="M24 2813 c3 -153 11 -822 17 -1488 5 -666 12 -1225 15 -1243 l5 -32
672 0 672 0 568 1499 c313 824 571 1508 574 1520 l5 21 -408 0 -409 0 -400
-1147 -400 -1148 -49 -3 -49 -3 6 1150 6 1151 -416 0 -416 0 7 -277z"/>
<path d="M4475 2624 c-203 -85 -372 -157 -377 -162 -4 -4 -73 -380 -154 -837
-160 -907 -171 -990 -140 -1134 25 -120 65 -193 154 -280 91 -91 178 -138 328
-178 88 -23 123 -26 317 -31 173 -3 238 -1 320 13 368 60 632 255 786 580 52
109 102 267 125 393 l6 32 -350 0 -349 0 -11 -42 c-55 -214 -144 -334 -273
-369 -84 -23 -212 6 -259 58 -9 10 -26 39 -37 63 -33 73 -28 175 27 485 l48
270 582 3 582 2 5 23 c3 12 27 145 53 295 l48 272 -583 0 -583 0 5 23 c7 28
115 657 115 668 0 5 -3 9 -7 8 -5 0 -174 -70 -378 -155z"/>
<path d="M6970 2129 c-368 -36 -644 -264 -772 -639 -16 -48 -55 -229 -90 -415
-55 -302 -61 -343 -61 -475 -2 -218 34 -323 147 -435 65 -65 149 -112 251
-140 89 -25 387 -32 477 -11 148 34 282 120 371 237 29 37 55 68 60 68 4 1 7
-10 7 -22 0 -39 58 -143 100 -181 51 -46 124 -83 202 -101 85 -20 305 -20 383
0 66 17 204 83 249 119 l29 24 8 163 c4 90 8 196 8 236 l1 72 -41 -14 c-57
-20 -159 -29 -191 -16 -39 15 -60 53 -59 108 0 26 52 340 115 696 64 357 116
655 116 663 0 12 -50 14 -319 14 l-319 0 -7 -52 c-4 -29 -9 -56 -11 -59 -2 -4
-21 9 -41 28 -110 103 -359 157 -613 132z m411 -631 c77 -45 77 -29 6 -426
-72 -399 -64 -380 -176 -435 -60 -29 -74 -32 -161 -32 -120 0 -177 25 -227 99
-43 63 -43 110 -3 344 38 218 60 294 105 354 66 90 166 129 315 125 82 -2 102
-6 141 -29z"/>
<path d="M18910 2133 c-86 -9 -212 -37 -294 -64 -264 -88 -456 -252 -567 -484
-61 -127 -76 -190 -141 -565 -59 -347 -67 -484 -34 -595 57 -190 193 -314 416
-378 138 -40 242 -50 490 -45 242 5 344 20 486 74 288 108 467 311 545 617 11
44 19 81 17 83 -2 1 -159 6 -349 10 l-345 7 -13 -41 c-45 -136 -204 -204 -366
-157 -134 38 -176 138 -144 336 l12 69 643 0 c603 0 643 1 648 18 2 9 17 91
32 182 63 380 28 577 -131 735 -147 147 -350 206 -695 203 -96 0 -191 -3 -210
-5z m237 -580 c21 -11 52 -40 71 -67 27 -41 32 -57 32 -106 0 -32 -3 -72 -6
-89 l-6 -31 -285 0 -285 0 7 28 c31 129 131 236 258 278 57 19 165 12 214 -13z"/>
<path d="M2715 2068 c-2 -7 -61 -335 -131 -728 -126 -706 -128 -717 -128 -870
-1 -140 1 -161 22 -213 47 -116 126 -188 250 -228 93 -30 367 -39 462 -15 72
18 209 83 254 120 l29 24 10 231 c5 127 8 234 5 236 -3 3 -22 -2 -42 -10 -21
-9 -65 -18 -99 -21 -82 -7 -127 15 -145 70 -11 36 -3 93 108 715 66 372 120
682 120 689 0 18 -709 18 -715 0z"/>
<path d="M11620 2074 c0 -3 -56 -323 -125 -710 -157 -878 -162 -947 -86 -1109
53 -115 127 -176 266 -222 71 -23 100 -27 262 -31 215 -5 285 7 413 68 121 59
213 135 302 249 l26 35 11 -45 c40 -158 136 -250 306 -294 80 -20 300 -20 380
0 72 19 185 71 240 112 l40 29 11 235 c5 129 10 235 9 237 -1 1 -21 -5 -45
-13 -101 -36 -203 -28 -235 18 -9 12 -15 43 -15 72 1 27 54 347 119 710 l117
660 -354 3 c-195 1 -357 0 -359 -2 -2 -2 -58 -304 -124 -672 -135 -758 -116
-697 -235 -755 -72 -36 -173 -51 -250 -39 -63 10 -80 19 -116 57 -70 74 -68
117 52 798 55 314 102 580 105 593 l5 22 -360 0 c-198 0 -360 -3 -360 -6z"/>
<path d="M14095 1353 l-130 -728 0 -160 0 -160 34 -73 c82 -174 229 -237 536
-230 176 5 236 20 347 87 105 64 95 38 108 300 7 128 10 234 7 237 -2 2 -20
-3 -41 -11 -20 -8 -62 -18 -94 -21 -110 -12 -171 40 -158 136 5 36 192 1100
232 1318 l6 32 -359 0 -358 0 -130 -727z"/>
</g>
</svg>
